# This file uses centimeters as units for non-parametric coordinates.

mtllib Paravent_opaque.mtl
g default
v -0.000033 0.000000 81.939743
v -0.000033 400.000000 81.939743
v -0.000033 400.000000 0.999975
v -0.000033 0.000000 0.999975
v -0.000033 22.772667 81.939743
v -0.000033 377.227295 81.939743
v -0.000033 377.227295 0.999975
v -0.000033 22.772667 0.999975
v -0.000033 22.772667 119.866180
v -0.000033 377.227295 119.866180
v 20.000034 0.000000 81.939743
v 20.000034 400.000000 81.939743
v 20.000034 400.000000 0.999975
v 20.000034 0.000000 0.999975
v 20.000034 22.772667 81.939743
v 20.000034 377.227295 81.939743
v 20.000034 377.227295 0.999975
v 20.000034 22.772667 0.999975
v 20.000034 22.772667 119.866180
v 20.000034 377.227295 119.866180
v 0.000115 0.000000 324.552002
v 20.000103 0.000000 324.552002
v 0.000115 400.000000 324.552002
v 20.000103 400.000000 324.552002
v 0.000115 400.000000 236.121155
v 20.000103 400.000000 236.121155
v 0.000115 0.000000 236.121155
v 20.000103 0.000000 236.121155
v 0.000115 22.772667 324.552002
v 0.000115 377.227295 324.552002
v 20.000103 377.227295 324.552002
v 20.000103 22.772667 324.552002
v 20.000103 293.361115 236.121155
v 20.000103 106.638870 236.121155
v 0.000115 293.361115 236.121155
v 0.000115 106.638870 236.121155
v 0.000115 400.000000 280.336609
v 20.000103 400.000000 280.336609
v 20.000103 377.227295 291.885406
v 20.000103 22.772667 291.885406
v 20.000103 0.000000 280.336609
v 0.000115 0.000000 280.336609
v 0.000115 22.772667 291.885406
v 0.000115 377.227295 291.885406
v 20.000103 106.638870 184.576385
v 20.000103 293.361115 184.576385
v 0.000115 106.638870 184.576385
v 0.000115 293.361115 184.576385
v -0.000033 0.000000 331.045135
v 20.000103 0.000000 331.045135
v -0.000033 400.000000 331.045135
v 20.000103 400.000000 331.045135
v -0.000033 400.000000 400.999939
v 20.000103 400.000000 401.000122
v -0.000033 0.000000 400.999939
v 20.000103 0.000000 401.000122
v -0.000033 31.638863 331.045135
v -0.000033 371.227295 331.045135
v 20.000103 371.227295 331.045135
v 20.000103 31.638863 331.045135
v 20.000103 299.989990 401.000122
v 20.000103 100.010002 401.000122
v -0.000033 299.989990 400.999939
v -0.000033 100.010002 400.999939
v -0.000033 31.638863 298.266022
v -0.000033 371.227295 298.266022
v 20.000103 31.638863 298.266022
v 20.000103 371.227295 298.266022
v 0.000115 0.000000 230.782074
v 20.000103 0.000000 230.782074
v 0.000115 400.000000 230.782074
v 20.000103 400.000000 230.782074
v 0.000115 400.000000 125.829880
v 20.000103 400.000000 125.829880
v 0.000115 0.000000 125.829880
v 20.000103 0.000000 125.829880
v 0.000115 100.010002 230.782074
v 0.000115 299.989990 230.782074
v 20.000103 299.989990 230.782074
v 20.000103 100.010002 230.782074
v 20.000103 299.989990 125.829880
v 20.000103 100.010002 125.829880
v 0.000115 299.989990 125.829880
v 0.000115 100.010002 125.829880
v 0.000115 400.000000 178.306000
v 20.000103 400.000000 178.306000
v 20.000103 299.989990 178.306000
v 20.000103 100.010002 178.306000
v 20.000103 0.000000 178.306000
v 0.000115 0.000000 178.306000
v 0.000115 100.010002 178.306000
v 0.000115 299.989990 178.306000
vt 0.212088 0.266197
vt 0.212088 0.496258
vt 0.161865 0.496258
vt 0.161865 0.266197
vt 0.212088 0.511038
vt 0.161865 0.511038
vt 0.161865 0.251416
vt 0.212088 0.251416
vt 0.235621 0.266197
vt 0.235621 0.496258
vt 0.292044 0.266197
vt 0.241821 0.266197
vt 0.241821 0.496258
vt 0.292044 0.496258
vt 0.241821 0.511038
vt 0.292044 0.511038
vt 0.241821 0.251416
vt 0.292044 0.251416
vt 0.315577 0.496258
vt 0.315577 0.266197
vt 0.590720 0.464331
vt 0.590720 0.398849
vt 0.852896 0.398849
vt 0.852896 0.464331
vt 0.718480 0.087443
vt 0.718480 0.042683
vt 0.761736 0.042683
vt 0.761736 0.087443
vt 0.045209 0.087443
vt 0.045209 0.042683
vt 0.001953 0.087443
vt 0.001953 0.042683
vt 0.321777 0.457356
vt 0.321777 0.391874
vt 0.583953 0.391874
vt 0.583953 0.457356
vt 0.579817 0.316898
vt 0.579817 0.251416
vt 0.609384 0.251416
vt 0.609384 0.316898
vt 0.372658 0.794945
vt 0.372658 0.729463
vt 0.495508 0.729463
vt 0.495508 0.794945
vt 0.001953 0.160764
vt 0.001953 0.125232
vt 0.850081 0.125232
vt 0.850081 0.160764
vt 0.114618 0.802942
vt 0.114618 0.737460
vt 0.237468 0.737460
vt 0.237468 0.802942
vt 0.616161 0.316898
vt 0.616161 0.251416
vt 0.645728 0.251416
vt 0.645728 0.316898
vt 0.478195 0.521033
vt 0.478195 0.466155
vt 0.634612 0.466155
vt 0.634612 0.521033
vt 0.641601 0.521033
vt 0.641601 0.466155
vt 0.798019 0.466155
vt 0.798019 0.521033
vt 0.770877 0.175935
vt 0.770877 0.383678
vt 0.735804 0.334525
vt 0.735804 0.225088
vt 0.876574 0.346322
vt 0.876574 0.138579
vt 0.911647 0.187732
vt 0.911647 0.297169
vt 0.361755 0.572242
vt 0.651033 0.572242
vt 0.651033 0.627120
vt 0.361755 0.627120
vt 0.797879 0.217466
vt 0.797879 0.162588
vt 0.833159 0.162588
vt 0.833159 0.217466
vt 0.365390 0.683822
vt 0.365390 0.628944
vt 0.530599 0.628944
vt 0.530599 0.683822
vt 0.883838 0.359669
vt 0.911647 0.359669
vt 0.763613 0.397025
vt 0.735804 0.397025
vt 0.579817 0.373601
vt 0.579817 0.318723
vt 0.615097 0.318723
vt 0.615097 0.373601
vt 0.883838 0.125232
vt 0.911647 0.125232
vt 0.536205 0.683822
vt 0.536205 0.628944
vt 0.701414 0.628944
vt 0.701414 0.683822
vt 0.735804 0.162588
vt 0.763613 0.162588
vt 0.321777 0.521033
vt 0.321777 0.466155
vt 0.856029 0.346322
vt 0.856029 0.359669
vt 0.856029 0.125232
vt 0.856029 0.138579
vt 0.954436 0.466155
vt 0.954436 0.521033
vt 0.791422 0.162588
vt 0.791422 0.175935
vt 0.791422 0.383678
vt 0.791422 0.397025
vt 0.001953 0.162588
vt 0.690466 0.162588
vt 0.690466 0.206357
vt 0.001953 0.206357
vt 0.793763 0.812304
vt 0.648870 0.812304
vt 0.648870 0.768535
vt 0.793763 0.768535
vt 0.499861 0.768535
vt 0.644754 0.768535
vt 0.644754 0.812304
vt 0.499861 0.812304
vt 0.944065 0.187732
vt 0.944065 0.297169
vt 0.359569 0.628944
vt 0.359569 0.685834
vt 0.183671 0.685834
vt 0.183671 0.628944
vt 0.703385 0.334525
vt 0.703385 0.225088
vt 0.001953 0.678933
vt 0.001953 0.622044
vt 0.177851 0.622044
vt 0.177851 0.678933
vt 0.572754 0.390049
vt 0.321778 0.390049
vt 0.321777 0.321645
vt 0.572754 0.321645
vt 0.572753 0.319821
vt 0.321777 0.319821
vt 0.321777 0.251416
vt 0.572754 0.251416
vt 0.105781 0.271661
vt 0.156725 0.315408
vt 0.156725 0.443366
vt 0.105781 0.488948
vt 0.001953 0.249592
vt 0.001953 0.208182
vt 0.699163 0.208182
vt 0.699163 0.249592
vt 0.052898 0.488948
vt 0.001953 0.443366
vt 0.001953 0.315408
vt 0.052898 0.271661
vt 0.657524 0.001953
vt 0.657524 0.040858
vt 0.220506 0.040858
vt 0.220506 0.001953
vt 0.824205 0.086838
vt 0.768804 0.086838
vt 0.768804 0.042683
vt 0.824205 0.042683
vt 0.876078 0.040858
vt 0.876078 0.001953
vt 0.052898 0.507358
vt 0.001953 0.507358
vt 0.156725 0.507358
vt 0.105781 0.507358
vt 0.986169 0.200693
vt 0.950522 0.200693
vt 0.950522 0.125232
vt 0.986169 0.125232
vt 0.052898 0.251416
vt 0.001953 0.251416
vt 0.001953 0.040858
vt 0.001953 0.001953
vt 0.156725 0.251416
vt 0.105781 0.251416
vt 0.081909 0.488948
vt 0.081909 0.271661
vt 0.108558 0.812920
vt 0.001953 0.812920
vt 0.001953 0.737460
vt 0.108558 0.737460
vt 0.076769 0.271661
vt 0.076769 0.488948
vt 0.881469 0.001953
vt 0.988074 0.001953
vt 0.988074 0.077414
vt 0.881469 0.077414
vt 0.182439 0.570417
vt 0.182439 0.522858
vt 0.362925 0.522858
vt 0.362925 0.570417
vt 0.369024 0.570417
vt 0.369024 0.522858
vt 0.549510 0.522858
vt 0.549510 0.570417
vt 0.914649 0.585765
vt 0.914649 0.711555
vt 0.888738 0.711555
vt 0.888738 0.585765
vt 0.856500 0.711555
vt 0.856500 0.585765
vt 0.882411 0.585765
vt 0.882411 0.711555
vt 0.251002 0.089267
vt 0.748999 0.089267
vt 0.748999 0.123408
vt 0.251002 0.123408
vt 0.372658 0.727639
vt 0.372658 0.685646
vt 0.575141 0.685646
vt 0.575141 0.727639
vt 0.001953 0.123408
vt 0.001953 0.089267
vt 0.856500 0.774462
vt 0.882411 0.774462
vt 0.914649 0.774462
vt 0.888738 0.774462
vt 0.579817 0.766711
vt 0.579817 0.718733
vt 0.757041 0.718733
vt 0.757041 0.766711
vt 0.856500 0.522858
vt 0.882411 0.522858
vt 0.998047 0.089267
vt 0.998047 0.123408
vt 0.888738 0.522858
vt 0.914649 0.522858
vt 0.001953 0.570417
vt 0.001953 0.522858
vt 0.830588 0.711555
vt 0.830588 0.774462
vt 0.830588 0.522858
vt 0.830588 0.585765
vt 0.729996 0.522858
vt 0.729996 0.570417
vt 0.940561 0.522858
vt 0.940561 0.585765
vt 0.940561 0.711555
vt 0.940561 0.774462
vt 0.001953 0.572242
vt 0.356329 0.572242
vt 0.356329 0.620219
vt 0.001953 0.620219
vt 0.180867 0.735636
vt 0.001953 0.735636
vt 0.001953 0.687658
vt 0.180867 0.687658
vt 0.187306 0.687658
vt 0.366219 0.687658
vt 0.366219 0.735636
vt 0.187306 0.735636
vn -1.000000 0.000000 0.000000
vn -1.000000 0.000000 0.000000
vn -1.000000 0.000000 0.000000
vn -1.000000 0.000000 0.000000
vn -1.000000 0.000000 0.000000
vn -1.000000 0.000000 0.000000
vn -1.000000 0.000000 0.000000
vn -1.000000 0.000000 0.000000
vn -1.000000 0.000000 0.000000
vn -1.000000 0.000000 0.000000
vn -1.000000 0.000000 0.000000
vn -1.000000 0.000000 0.000000
vn -1.000000 0.000000 0.000000
vn -1.000000 0.000000 0.000000
vn -1.000000 0.000000 0.000000
vn -1.000000 0.000000 0.000000
vn 1.000000 0.000000 0.000000
vn 1.000000 0.000000 0.000000
vn 1.000000 0.000000 0.000000
vn 1.000000 0.000000 0.000000
vn 1.000000 0.000000 0.000000
vn 1.000000 0.000000 0.000000
vn 1.000000 0.000000 0.000000
vn 1.000000 0.000000 0.000000
vn 1.000000 0.000000 0.000000
vn 1.000000 0.000000 0.000000
vn 1.000000 0.000000 0.000000
vn 1.000000 0.000000 0.000000
vn 1.000000 0.000000 0.000000
vn 1.000000 0.000000 0.000000
vn 1.000000 0.000000 0.000000
vn 1.000000 0.000000 0.000000
vn 0.000000 -1.000000 0.000000
vn 0.000000 -1.000000 0.000000
vn 0.000000 -1.000000 0.000000
vn 0.000000 -1.000000 0.000000
vn 0.000000 0.000000 -1.000000
vn 0.000000 0.000000 -1.000000
vn 0.000000 0.000000 -1.000000
vn 0.000000 0.000000 -1.000000
vn 0.000000 0.000000 -1.000000
vn 0.000000 0.000000 -1.000000
vn 0.000000 0.000000 -1.000000
vn 0.000000 0.000000 -1.000000
vn 0.000000 0.000000 -1.000000
vn 0.000000 0.000000 -1.000000
vn 0.000000 0.000000 -1.000000
vn 0.000000 0.000000 -1.000000
vn 0.000000 1.000000 0.000000
vn 0.000000 1.000000 0.000000
vn 0.000000 1.000000 0.000000
vn 0.000000 1.000000 0.000000
vn 0.000000 0.000000 1.000000
vn 0.000000 0.000000 1.000000
vn 0.000000 0.000000 1.000000
vn 0.000000 0.000000 1.000000
vn 0.000000 1.000000 0.000000
vn 0.000000 1.000000 0.000000
vn 0.000000 1.000000 0.000000
vn 0.000000 1.000000 0.000000
vn 0.000000 0.000000 1.000000
vn 0.000000 0.000000 1.000000
vn 0.000000 0.000000 1.000000
vn 0.000000 0.000000 1.000000
vn 0.000000 -1.000000 0.000000
vn 0.000000 -1.000000 0.000000
vn 0.000000 -1.000000 0.000000
vn 0.000000 -1.000000 0.000000
vn 0.000000 0.000000 1.000000
vn 0.000000 0.000000 1.000000
vn 0.000000 0.000000 1.000000
vn 0.000000 0.000000 1.000000
vn 0.000000 1.000000 0.000000
vn 0.000000 1.000000 0.000000
vn 0.000000 1.000000 0.000000
vn 0.000000 1.000000 0.000000
vn 0.000000 -1.000000 0.000000
vn 0.000000 -1.000000 0.000000
vn 0.000000 -1.000000 0.000000
vn 0.000000 -1.000000 0.000000
vn -1.000000 0.000000 0.000000
vn -1.000000 0.000000 0.000000
vn -1.000000 0.000000 0.000000
vn -1.000000 0.000000 0.000000
vn 1.000000 0.000000 0.000000
vn 1.000000 0.000000 0.000000
vn 1.000000 0.000000 0.000000
vn 1.000000 0.000000 0.000000
vn 0.000000 0.000000 -1.000000
vn 0.000000 0.000000 -1.000000
vn 0.000000 0.000000 -1.000000
vn 0.000000 0.000000 -1.000000
vn 0.000000 0.000000 1.000000
vn 0.000000 0.000000 1.000000
vn 0.000000 0.000000 1.000000
vn 0.000000 0.000000 1.000000
vn 0.000000 0.000000 -1.000000
vn 0.000000 0.000000 -1.000000
vn 0.000000 0.000000 -1.000000
vn 0.000000 0.000000 -1.000000
vn 1.000000 0.000000 0.000000
vn 1.000000 0.000000 0.000000
vn 1.000000 0.000000 0.000000
vn 1.000000 0.000000 0.000000
vn -1.000000 0.000000 0.000000
vn -1.000000 0.000000 0.000000
vn -1.000000 0.000000 0.000000
vn -1.000000 0.000000 0.000000
vn 0.000000 0.000000 1.000000
vn 0.000000 0.000000 1.000000
vn 0.000000 0.000000 1.000000
vn 0.000000 0.000000 1.000000
vn 1.000000 0.000000 0.000000
vn 1.000000 0.000000 0.000000
vn 1.000000 0.000000 0.000000
vn 1.000000 0.000000 0.000000
vn 0.000000 0.000000 -1.000000
vn 0.000000 0.000000 -1.000000
vn 0.000000 0.000000 -1.000000
vn 0.000000 0.000000 -1.000000
vn -1.000000 0.000000 0.000000
vn -1.000000 0.000000 0.000000
vn -1.000000 0.000000 0.000000
vn -1.000000 0.000000 0.000000
vn 0.000000 1.000000 0.000000
vn 0.000000 1.000000 0.000000
vn 0.000000 1.000000 0.000000
vn 0.000000 1.000000 0.000000
vn 1.000000 0.000000 0.000000
vn 1.000000 0.000000 0.000000
vn 1.000000 0.000000 0.000000
vn 1.000000 0.000000 0.000000
vn 1.000000 0.000000 0.000000
vn 1.000000 0.000000 0.000000
vn 1.000000 0.000000 0.000000
vn 1.000000 0.000000 0.000000
vn 0.000000 -1.000000 0.000000
vn 0.000000 -1.000000 0.000000
vn 0.000000 -1.000000 0.000000
vn 0.000000 -1.000000 0.000000
vn -1.000000 0.000000 0.000000
vn -1.000000 0.000000 0.000000
vn -1.000000 0.000000 0.000000
vn -1.000000 0.000000 0.000000
vn -1.000000 0.000000 0.000000
vn -1.000000 0.000000 0.000000
vn -1.000000 0.000000 0.000000
vn -1.000000 0.000000 0.000000
vn 0.000000 0.000000 1.000000
vn 0.000000 0.000000 1.000000
vn 0.000000 0.000000 1.000000
vn 0.000000 0.000000 1.000000
vn 0.000000 -1.000000 0.000000
vn 0.000000 -1.000000 0.000000
vn 0.000000 -1.000000 0.000000
vn 0.000000 -1.000000 0.000000
vn 0.000000 1.000000 0.000000
vn 0.000000 1.000000 0.000000
vn 0.000000 1.000000 0.000000
vn 0.000000 1.000000 0.000000
vn 1.000000 0.000000 0.000000
vn 1.000000 0.000000 0.000000
vn 1.000000 0.000000 0.000000
vn 1.000000 0.000000 0.000000
vn 0.000000 -1.000000 0.000000
vn 0.000000 -1.000000 0.000000
vn 0.000000 -1.000000 0.000000
vn 0.000000 -1.000000 0.000000
vn -1.000000 0.000000 0.000000
vn -1.000000 0.000000 0.000000
vn -1.000000 0.000000 0.000000
vn -1.000000 0.000000 0.000000
vn 0.000000 1.000000 0.000000
vn 0.000000 1.000000 0.000000
vn 0.000000 1.000000 0.000000
vn 0.000000 1.000000 0.000000
vn 0.000000 1.000000 0.000000
vn 0.000000 1.000000 0.000000
vn 0.000000 1.000000 0.000000
vn 0.000000 1.000000 0.000000
vn 0.000000 -1.000000 0.000000
vn 0.000000 -1.000000 0.000000
vn 0.000000 -1.000000 0.000000
vn 0.000000 -1.000000 0.000000
vn -1.000000 0.000000 0.000000
vn -1.000000 0.000000 0.000000
vn -1.000000 0.000000 0.000000
vn -1.000000 0.000000 0.000000
vn 0.000000 0.000000 -1.000000
vn 0.000000 0.000000 -1.000000
vn 0.000000 0.000000 -1.000000
vn 0.000000 0.000000 -1.000000
vn 1.000000 0.000000 0.000000
vn 1.000000 0.000000 0.000000
vn 1.000000 0.000000 0.000000
vn 1.000000 0.000000 0.000000
vn -0.000010 0.000000 1.000000
vn -0.000010 0.000000 1.000000
vn -0.000010 0.000000 1.000000
vn -0.000010 0.000000 1.000000
vn 0.000000 0.000000 -1.000000
vn 0.000000 0.000000 -1.000000
vn 0.000000 0.000000 -1.000000
vn 0.000000 0.000000 -1.000000
vn -0.000010 0.000000 1.000000
vn -0.000010 0.000000 1.000000
vn -0.000010 0.000000 1.000000
vn -0.000010 0.000000 1.000000
vn 1.000000 0.000000 0.000000
vn 1.000000 0.000000 0.000000
vn 1.000000 0.000000 0.000000
vn 1.000000 0.000000 0.000000
vn -1.000000 0.000000 0.000000
vn -1.000000 0.000000 0.000000
vn -1.000000 0.000000 0.000000
vn -1.000000 0.000000 0.000000
vn 0.000000 0.000000 -1.000000
vn 0.000000 0.000000 -1.000000
vn 0.000000 0.000000 -1.000000
vn 0.000000 0.000000 -1.000000
vn 1.000000 0.000000 0.000000
vn 1.000000 0.000000 0.000000
vn 1.000000 0.000000 0.000000
vn 1.000000 0.000000 0.000000
vn -0.000010 0.000000 1.000000
vn -0.000010 0.000000 1.000000
vn -0.000010 0.000000 1.000000
vn -0.000010 0.000000 1.000000
vn -1.000000 0.000000 0.000000
vn -1.000000 0.000000 0.000000
vn -1.000000 0.000000 0.000000
vn -1.000000 0.000000 0.000000
vn -1.000000 0.000000 0.000000
vn -1.000000 0.000000 0.000000
vn -1.000000 0.000000 0.000000
vn -1.000000 0.000000 0.000000
vn 0.000000 -1.000000 0.000000
vn 0.000000 -1.000000 0.000000
vn 0.000000 -1.000000 0.000000
vn 0.000000 -1.000000 0.000000
vn 1.000000 0.000000 0.000000
vn 1.000000 0.000000 0.000000
vn 1.000000 0.000000 0.000000
vn 1.000000 0.000000 0.000000
vn 0.000000 1.000000 0.000000
vn 0.000000 1.000000 0.000000
vn 0.000000 1.000000 0.000000
vn 0.000000 1.000000 0.000000
vn 0.000000 1.000000 0.000000
vn 0.000000 1.000000 0.000000
vn 0.000000 1.000000 0.000000
vn 0.000000 1.000000 0.000000
vn 0.000000 -1.000000 0.000000
vn 0.000000 -1.000000 0.000000
vn 0.000000 -1.000000 0.000000
vn 0.000000 -1.000000 0.000000
vn -1.000000 0.000000 0.000000
vn -1.000000 0.000000 0.000000
vn -1.000000 0.000000 0.000000
vn -1.000000 0.000000 0.000000
vn 1.000000 0.000000 0.000000
vn 1.000000 0.000000 0.000000
vn 1.000000 0.000000 0.000000
vn 1.000000 0.000000 0.000000
vn 0.000000 0.000000 -1.000000
vn 0.000000 0.000000 -1.000000
vn 0.000000 0.000000 -1.000000
vn 0.000000 0.000000 -1.000000
vn 0.000000 0.000000 1.000000
vn 0.000000 0.000000 1.000000
vn 0.000000 0.000000 1.000000
vn 0.000000 0.000000 1.000000
vn 0.000000 0.000000 -1.000000
vn 0.000000 0.000000 -1.000000
vn 0.000000 0.000000 -1.000000
vn 0.000000 0.000000 -1.000000
vn 1.000000 0.000000 0.000000
vn 1.000000 0.000000 0.000000
vn 1.000000 0.000000 0.000000
vn 1.000000 0.000000 0.000000
vn -1.000000 0.000000 0.000000
vn -1.000000 0.000000 0.000000
vn -1.000000 0.000000 0.000000
vn -1.000000 0.000000 0.000000
vn 0.000000 0.000000 1.000000
vn 0.000000 0.000000 1.000000
vn 0.000000 0.000000 1.000000
vn 0.000000 0.000000 1.000000
vn 1.000000 0.000000 0.000000
vn 1.000000 0.000000 0.000000
vn 1.000000 0.000000 0.000000
vn 1.000000 0.000000 0.000000
vn 0.000000 0.000000 -1.000000
vn 0.000000 0.000000 -1.000000
vn 0.000000 0.000000 -1.000000
vn 0.000000 0.000000 -1.000000
vn -1.000000 0.000000 0.000000
vn -1.000000 0.000000 0.000000
vn -1.000000 0.000000 0.000000
vn -1.000000 0.000000 0.000000
vn 0.000000 1.000000 0.000000
vn 0.000000 1.000000 0.000000
vn 0.000000 1.000000 0.000000
vn 0.000000 1.000000 0.000000
vn 1.000000 0.000000 0.000000
vn 1.000000 0.000000 0.000000
vn 1.000000 0.000000 0.000000
vn 1.000000 0.000000 0.000000
vn 1.000000 0.000000 0.000000
vn 1.000000 0.000000 0.000000
vn 1.000000 0.000000 0.000000
vn 1.000000 0.000000 0.000000
vn 0.000000 -1.000000 0.000000
vn 0.000000 -1.000000 0.000000
vn 0.000000 -1.000000 0.000000
vn 0.000000 -1.000000 0.000000
vn -1.000000 0.000000 0.000000
vn -1.000000 0.000000 0.000000
vn -1.000000 0.000000 0.000000
vn -1.000000 0.000000 0.000000
vn -1.000000 0.000000 0.000000
vn -1.000000 0.000000 0.000000
vn -1.000000 0.000000 0.000000
vn -1.000000 0.000000 0.000000
vn 0.000000 0.000000 1.000000
vn 0.000000 0.000000 1.000000
vn 0.000000 0.000000 1.000000
vn 0.000000 0.000000 1.000000
vn 0.000000 -1.000000 0.000000
vn 0.000000 -1.000000 0.000000
vn 0.000000 -1.000000 0.000000
vn 0.000000 -1.000000 0.000000
vn 0.000000 1.000000 0.000000
vn 0.000000 1.000000 0.000000
vn 0.000000 1.000000 0.000000
vn 0.000000 1.000000 0.000000
s off
g Paravent_opaque
usemtl Paravent_low_initialShadingGroup
f 5/1/1 6/2/2 7/3/3 8/4/4
f 7/3/5 6/2/6 2/5/7 3/6/8
f 4/7/9 1/8/10 5/1/11 8/4/12
f 6/2/13 5/1/14 9/9/15 10/10/16
f 15/11/17 18/12/18 17/13/19 16/14/20
f 17/13/21 13/15/22 12/16/23 16/14/24
f 14/17/25 18/12/26 15/11/27 11/18/28
f 16/14/29 20/19/30 19/20/31 15/11/32
f 4/21/33 14/22/34 11/23/35 1/24/36
f 8/25/37 18/26/38 14/27/39 4/28/40
f 7/29/41 17/30/42 18/26/43 8/25/44
f 3/31/45 13/32/46 17/30/47 7/29/48
f 2/33/49 12/34/50 13/35/51 3/36/52
f 6/37/53 16/38/54 12/39/55 2/40/56
f 10/41/57 20/42/58 16/43/59 6/44/60
f 9/45/61 19/46/62 20/47/63 10/48/64
f 5/49/65 15/50/66 19/51/67 9/52/68
f 1/53/69 11/54/70 15/55/71 5/56/72
f 37/57/73 38/58/74 26/59/75 25/60/76
f 27/61/77 28/62/78 41/63/79 42/64/80
f 43/65/81 44/66/82 35/67/83 36/68/84
f 39/69/85 40/70/86 34/71/87 33/72/88
f 46/73/89 45/74/90 47/75/91 48/76/92
f 30/77/93 31/78/94 24/79/95 23/80/96
f 25/81/97 26/82/98 33/83/99 35/84/100
f 38/85/101 39/69/102 33/72/103 26/86/104
f 35/67/105 44/66/106 37/87/107 25/88/108
f 21/89/109 22/90/110 32/91/111 29/92/112
f 40/70/113 41/93/114 28/94/115 34/71/116
f 36/95/117 34/96/118 28/97/119 27/98/120
f 27/99/121 42/100/122 43/65/123 36/68/124
f 23/101/125 24/102/126 38/58/127 37/57/128
f 31/103/129 39/69/130 38/85/131 24/104/132
f 22/105/133 41/93/134 40/70/135 32/106/136
f 42/64/137 41/63/138 22/107/139 21/108/140
f 43/65/141 42/100/142 21/109/143 29/110/144
f 37/87/145 44/66/146 30/111/147 23/112/148
f 40/113/149 39/114/150 44/115/151 43/116/152
f 30/117/153 44/118/154 39/119/155 31/120/156
f 32/121/157 40/122/158 43/123/159 29/124/160
f 33/72/161 34/71/162 45/125/163 46/126/164
f 34/127/165 36/128/166 47/129/167 45/130/168
f 36/68/169 35/67/170 48/131/171 47/132/172
f 35/133/173 33/134/174 46/135/175 48/136/176
f 51/137/177 53/138/178 54/139/179 52/140/180
f 55/141/181 49/142/182 50/143/183 56/144/184
f 57/145/185 64/146/186 63/147/187 58/148/188
f 66/149/189 68/150/190 67/151/191 65/152/192
f 59/153/193 61/154/194 62/155/195 60/156/196
f 61/157/197 63/158/198 64/159/199 62/160/200
f 58/161/201 51/162/202 52/163/203 59/164/204
f 53/165/205 63/158/206 61/157/207 54/166/208
f 59/153/209 52/167/210 54/168/211 61/154/212
f 63/147/213 53/169/214 51/170/215 58/148/216
f 49/171/217 57/172/218 60/173/219 50/174/220
f 50/175/221 60/156/222 62/155/223 56/176/224
f 64/159/225 55/177/226 56/178/227 62/160/228
f 55/179/229 64/146/230 57/145/231 49/180/232
f 58/148/233 66/181/234 65/182/235 57/145/236
f 57/183/237 65/184/238 67/185/239 60/186/240
f 60/156/241 67/187/242 68/188/243 59/153/244
f 59/189/245 68/190/246 66/191/247 58/192/248
f 85/193/249 86/194/250 74/195/251 73/196/252
f 75/197/253 76/198/254 89/199/255 90/200/256
f 91/201/257 92/202/258 83/203/259 84/204/260
f 87/205/261 88/206/262 82/207/263 81/208/264
f 81/209/265 82/210/266 84/211/267 83/212/268
f 78/213/269 79/214/270 72/215/271 71/216/272
f 73/217/273 74/218/274 81/209/275 83/212/276
f 86/219/277 87/205/278 81/208/279 74/220/280
f 83/203/281 92/202/282 85/221/283 73/222/284
f 69/223/285 70/224/286 80/225/287 77/226/288
f 88/206/289 89/227/290 76/228/291 82/207/292
f 84/211/293 82/210/294 76/229/295 75/230/296
f 75/231/297 90/232/298 91/201/299 84/204/300
f 71/233/301 72/234/302 86/194/303 85/193/304
f 79/235/305 87/205/306 86/219/307 72/236/308
f 70/237/309 89/227/310 88/206/311 80/238/312
f 90/200/313 89/199/314 70/239/315 69/240/316
f 91/201/317 90/232/318 69/241/319 77/242/320
f 85/221/321 92/202/322 78/243/323 71/244/324
f 88/245/325 87/246/326 92/247/327 91/248/328
f 78/249/329 92/250/330 87/251/331 79/252/332
f 80/253/333 88/254/334 91/255/335 77/256/336
