# This file uses centimeters as units for non-parametric coordinates.

mtllib Table_carre_1x2.mtl
g default
v -99.512509 0.000000 -0.517633
v -99.999990 0.502720 -0.000068
v -1.133157 0.000000 -3.388984
v -1.118009 0.502720 -2.886623
v -99.999990 3.037098 -0.000068
v -99.512509 3.539818 -0.517633
v -1.133157 4.042534 -3.388984
v -1.635519 3.539818 -3.373835
v -1.118009 3.037098 -2.886623
v -0.615647 3.539818 -2.901771
v -102.492626 3.539818 -96.517709
v -103.010042 3.037098 -97.005276
v -4.113337 4.042534 -99.388824
v -3.625857 3.539818 -99.906389
v -4.128455 3.037098 -99.891304
v -4.615699 3.539818 -99.373675
v -103.010042 0.502720 -97.005276
v -102.492626 0.000000 -96.517709
v -4.113337 0.000000 -99.388824
v -4.128455 0.502720 -99.891304
v 2.980058 0.000000 -3.512703
v 2.492813 0.502720 -2.995075
v 2.492813 3.539818 -2.995075
v 2.980058 3.539818 -3.512703
v -0.000090 3.539818 -99.512661
v -0.517687 3.539818 -100.000024
v -0.517687 0.502720 -100.000024
v -0.000090 0.000000 -99.512661
v -4.615699 198.324219 -99.373675
v -4.128455 198.826660 -99.891304
v -3.625857 198.324219 -99.906389
v -4.113337 197.821289 -99.388824
v -1.635519 198.324219 -3.373835
v -1.133157 197.821289 -3.388984
v -0.615647 198.324219 -2.901771
v -1.118009 198.826660 -2.886623
v 2.492813 198.324219 -2.995075
v 2.980058 198.324219 -3.512703
v -1.118009 201.173340 -2.886623
v -1.133157 201.675781 -3.388984
v 2.980058 201.173340 -3.512703
v 2.477524 201.675781 -3.497854
v 2.492813 201.173340 -2.995075
v -0.000090 198.324219 -99.512661
v -0.517687 198.324219 -100.000024
v -0.517687 201.173340 -100.000024
v -0.502420 201.675781 -99.497630
v -0.000090 201.173340 -99.512661
v -4.113337 201.675781 -99.388824
v -4.128455 201.173340 -99.891304
v -102.995029 198.324219 -96.517736
v -103.512444 198.826660 -97.005303
v -100.517659 198.826660 -0.502489
v -100.015061 198.324219 -0.517574
v -100.000003 198.826660 -0.015111
v -100.517659 201.173340 -0.502489
v -100.000003 201.173340 -0.015111
v -100.015061 201.675781 -0.517574
v -102.995029 201.675781 -96.517736
v -103.512444 201.173340 -97.005303
vt 0.492826 0.661135
vt 0.335529 0.661135
vt 0.335529 0.339631
vt 0.492826 0.339631
vt 0.335769 0.661970
vt 0.493066 0.661970
vt 0.334490 0.338797
vt 0.334490 0.661970
vt 0.493066 0.338797
vt 0.335769 0.338797
vt 0.334730 0.662803
vt 0.334730 0.337963
vt 0.500759 0.338792
vt 0.501797 0.337959
vt 0.501797 0.343828
vt 0.500759 0.343828
vt 0.659006 0.337959
vt 0.659006 0.343828
vt 0.501797 0.666821
vt 0.500759 0.666821
vt 0.659006 0.666821
vt 0.501797 0.671545
vt 0.500759 0.671545
vt 0.659006 0.671545
vt 0.501558 0.672379
vt 0.658767 0.672379
vt 0.992528 0.432117
vt 0.992528 0.264396
vt 0.996966 0.264396
vt 0.996966 0.432117
vt 0.991647 0.265492
vt 0.991647 0.431527
vt 0.997847 0.265492
vt 0.997847 0.431527
vt 0.917313 0.756843
vt 0.917313 0.589455
vt 0.921435 0.589455
vt 0.921435 0.756843
vt 0.916431 0.756251
vt 0.916431 0.589709
vt 0.922318 0.589709
vt 0.922318 0.756251
vt 0.184874 0.819743
vt 0.345724 0.819754
vt 0.345724 0.825624
vt 0.184873 0.825613
vt 0.184884 0.664762
vt 0.345735 0.664773
vt 0.346541 0.819754
vt 0.346541 0.825624
vt 0.184057 0.825613
vt 0.184057 0.819743
vt 0.184067 0.663946
vt 0.346552 0.664773
vt 0.184874 0.826430
vt 0.345735 0.663956
vt 0.175552 0.014031
vt 0.014714 0.015893
vt 0.014637 0.009207
vt 0.175475 0.007346
vt 0.016507 0.170862
vt 0.177346 0.169001
vt 0.013897 0.015903
vt 0.013829 0.010033
vt 0.176369 0.014022
vt 0.176301 0.008153
vt 0.015700 0.171688
vt 0.178172 0.169809
vt 0.678272 0.830876
vt 0.678262 0.985040
vt 0.517411 0.985030
vt 0.517421 0.830865
vt 0.679089 0.830059
vt 0.679078 0.985857
vt 0.516604 0.830048
vt 0.516594 0.985846
vt 0.667853 0.004563
vt 0.822008 0.002779
vt 0.823869 0.163619
vt 0.669715 0.165404
vt 0.822815 0.001953
vt 0.667028 0.003756
vt 0.824695 0.164427
vt 0.669724 0.166220
vt 0.668898 0.165413
vt 0.653609 0.007845
vt 0.654651 0.007008
vt 0.654651 0.331229
vt 0.653609 0.330392
vt 0.652808 0.007008
vt 0.653850 0.006172
vt 0.659609 0.007008
vt 0.659609 0.331229
vt 0.652808 0.331229
vt 0.653850 0.332065
vt 0.653850 0.001953
vt 0.659609 0.001953
vt 0.659609 0.335972
vt 0.653850 0.335972
vt 0.501000 0.001953
vt 0.501000 0.006172
vt 0.501801 0.332065
vt 0.501801 0.335972
vt 0.500759 0.332065
vt 0.500759 0.335972
vt 0.494151 0.330938
vt 0.493109 0.330938
vt 0.493109 0.006696
vt 0.494151 0.006696
vt 0.494151 0.336831
vt 0.493109 0.335994
vt 0.488152 0.330938
vt 0.488152 0.006696
vt 0.493109 0.001953
vt 0.494151 0.001953
vt 0.487350 0.331775
vt 0.487350 0.005859
vt 0.487350 0.335994
vt 0.487350 0.001953
vt 0.334490 0.331775
vt 0.334490 0.335994
vt 0.334491 0.005859
vt 0.334491 0.001953
vn -0.999519 0.000000 0.031029
vn -0.999519 0.000000 0.031029
vn -0.999519 0.000000 0.031029
vn -0.999519 0.000000 0.031029
vn -0.706809 -0.707064 0.021937
vn -0.706809 -0.707064 0.021937
vn -0.706809 -0.707064 0.021937
vn -0.706809 -0.707064 0.021937
vn 0.020629 -0.707182 0.706731
vn 0.020629 -0.707182 0.706731
vn 0.020653 -0.707180 0.706732
vn 0.020653 -0.707180 0.706732
vn 0.021275 -0.707123 0.706770
vn 0.021275 -0.707123 0.706771
vn -0.706809 0.707064 0.021937
vn -0.706809 0.707064 0.021937
vn -0.706809 0.707064 0.021937
vn -0.706809 0.707064 0.021937
vn 0.020631 0.707038 0.706875
vn 0.020631 0.707038 0.706875
vn 0.020631 0.707038 0.706875
vn 0.020631 0.707038 0.706875
vn -0.684785 0.001310 0.728744
vn -0.683916 0.002990 0.729555
vn -0.683917 -0.002990 0.729554
vn -0.684785 -0.001310 0.728744
vn -0.706786 0.707087 0.021941
vn -0.706786 0.707087 0.021941
vn -0.706786 0.707087 0.021941
vn -0.706786 0.707087 0.021941
vn -0.020624 0.707192 -0.706720
vn -0.020624 0.707192 -0.706720
vn -0.023248 0.705899 -0.707931
vn -0.026579 0.704246 -0.709459
vn -0.726497 0.002988 -0.687163
vn -0.727314 0.001311 -0.686304
vn -0.727314 -0.001310 -0.686303
vn -0.726497 -0.002989 -0.687163
vn -0.020631 -0.707030 -0.706883
vn -0.020631 -0.707029 -0.706883
vn -0.020656 -0.707033 -0.706879
vn -0.020656 -0.707033 -0.706879
vn -0.021300 -0.707125 -0.706768
vn -0.021300 -0.707125 -0.706768
vn 0.728146 0.000000 0.685422
vn 0.728146 0.000000 0.685422
vn 0.728152 0.000000 0.685416
vn 0.728152 0.000000 0.685416
vn 0.728152 0.000000 0.685416
vn 0.728152 0.000000 0.685416
vn 0.685487 0.000000 -0.728085
vn 0.685487 0.000000 -0.728085
vn 0.685486 0.000000 -0.728086
vn 0.685486 0.000000 -0.728086
vn 0.685562 0.000000 -0.728015
vn 0.685562 0.000000 -0.728015
vn -0.026430 -0.704415 -0.709296
vn -0.023112 -0.706061 -0.707773
vn -0.020501 -0.707349 -0.706567
vn -0.020501 -0.707349 -0.706567
vn -0.706936 -0.706937 0.021946
vn -0.706936 -0.706937 0.021946
vn -0.706936 -0.706937 0.021946
vn -0.706936 -0.706937 0.021946
vn 0.020521 -0.707052 0.706863
vn 0.020521 -0.707052 0.706863
vn 0.020521 -0.707052 0.706864
vn 0.020521 -0.707052 0.706863
vn 0.728132 0.000000 0.685437
vn 0.728132 0.000000 0.685437
vn 0.020550 0.707269 0.706646
vn 0.020550 0.707269 0.706646
vn 0.020524 0.707264 0.706652
vn 0.020524 0.707264 0.706652
vn 0.021262 0.707407 0.706487
vn 0.021262 0.707407 0.706487
vn 0.706593 0.707281 -0.021933
vn 0.706593 0.707281 -0.021933
vn 0.706593 0.707280 -0.021933
vn 0.706593 0.707280 -0.021933
vn 0.685496 0.000000 -0.728077
vn 0.685496 0.000000 -0.728077
vn -0.021304 0.707293 -0.706599
vn -0.021304 0.707293 -0.706599
vn -0.020544 0.707162 -0.706753
vn -0.020544 0.707163 -0.706753
vn -0.020516 0.707158 -0.706758
vn -0.020516 0.707158 -0.706758
vn -0.706719 -0.707154 0.021938
vn -0.706719 -0.707154 0.021938
vn -0.706719 -0.707154 0.021938
vn -0.706719 -0.707154 0.021938
vn -0.685566 0.000000 0.728011
vn -0.685566 0.000000 0.728011
vn -0.685566 0.000000 0.728011
vn -0.685566 0.000000 0.728011
vn -0.706719 0.707154 0.021938
vn -0.706719 0.707154 0.021938
vn -0.706719 0.707154 0.021938
vn -0.706719 0.707154 0.021938
vn 0.000000 1.000000 -0.000000
vn 0.000000 1.000000 -0.000000
vn 0.000000 1.000000 -0.000000
vn 0.000000 1.000000 -0.000000
vn -0.030103 0.000003 -0.999547
vn -0.029189 0.000000 -0.999574
vn -0.030112 0.000000 -0.999547
vn 0.000000 -1.000000 0.000000
vn 0.000000 -1.000000 0.000000
vn 0.000000 -1.000000 0.000000
vn 0.000000 -1.000000 0.000000
vn 0.999519 0.000000 -0.031028
vn 0.999519 0.000000 -0.031028
vn 0.999519 0.000000 -0.031028
vn 0.999519 0.000000 -0.031028
vn -0.999519 0.000000 0.031015
vn -0.999519 0.000000 0.031015
vn -0.999519 0.000000 0.031015
vn -0.999519 0.000000 0.031015
vn 0.000000 -1.000000 0.000000
vn 0.000000 -1.000000 0.000000
vn -0.029174 0.000000 -0.999574
vn -0.029190 0.000000 -0.999574
vn -0.029174 0.000000 -0.999574
vn 0.029179 0.000000 0.999574
vn 0.029213 0.000000 0.999573
vn 0.029229 0.000001 0.999573
vn 0.029179 0.000000 0.999574
vn -0.999519 0.000000 0.031016
vn -0.999519 0.000000 0.031016
vn -0.999519 0.000000 0.031016
vn -0.999519 0.000000 0.031016
vn 0.999519 0.000000 -0.031028
vn 0.999519 0.000000 -0.031028
vn 0.999519 0.000000 -0.031029
vn 0.999519 0.000000 -0.031029
vn -0.030087 -0.000003 -0.999547
vn -0.030112 -0.000000 -0.999547
vn -0.029046 -0.000000 -0.999578
vn 0.030005 -0.000000 0.999550
vn 0.030004 0.000000 0.999550
vn 0.030004 0.000000 0.999550
vn 0.030005 -0.000000 0.999550
vn -0.030112 0.000000 -0.999547
vn -0.030112 0.000000 -0.999547
vn 0.029026 0.000000 0.999579
vn 0.029088 -0.000001 0.999577
vn 0.029068 -0.000001 0.999578
vn 0.029026 0.000000 0.999579
vn 0.000000 1.000000 0.000000
vn 0.000000 1.000000 0.000000
vn -0.029047 0.000000 -0.999578
vn -0.029028 0.000000 -0.999579
vn -0.029028 0.000000 -0.999579
vn 0.029999 0.000011 0.999550
vn 0.030023 -0.000012 0.999549
vn 0.000000 1.000000 0.000000
vn 0.000000 1.000000 0.000000
vn 0.000000 1.000000 0.000000
vn 0.000000 1.000000 0.000000
vn -0.000000 -1.000000 0.000000
vn -0.000000 -1.000000 0.000000
vn -0.000000 -1.000000 0.000000
vn -0.000000 -1.000000 0.000000
vn -0.383331 0.408168 0.828527
vn -0.383331 0.408168 0.828527
vn -0.383515 -0.408180 0.828435
vn -0.383515 -0.408180 0.828435
vn 0.594336 0.577729 0.559459
vn 0.594336 0.577729 0.559459
vn 0.594336 0.577729 0.559459
vn 0.559896 0.577264 -0.594376
vn 0.559896 0.577264 -0.594376
vn 0.559896 0.577264 -0.594376
vn -0.559546 -0.577591 0.594387
vn -0.559546 -0.577591 0.594387
vn -0.559546 -0.577591 0.594387
vn -0.559546 0.577591 0.594387
vn -0.559546 0.577591 0.594387
vn -0.559546 0.577591 0.594387
s off
g Table_carre_1x2
usemtl initialShadingGroup
f 34/1/1 32/2/2 13/3/3 7/4/4
f 1/31/5 2/28/6 17/27/7 18/32/8
s 1
f 2/68/9 1/62/10 3/57/11 4/65/12
f 4/65/12 3/57/11 21/60/13 22/66/14
s off
f 5/29/15 6/33/16 11/34/17 12/30/18
f 6/69/19 5/73/20 9/74/21 8/70/22
s 2
f 7/86/23 10/87/24 35/88/25 34/89/26
s off
f 8/9/27 7/4/28 13/3/29 16/10/30
s 3
f 12/75/31 11/72/32 16/71/33 15/76/34
f 14/7/35 13/3/36 32/2/37 31/8/38
s 4
f 18/61/39 17/67/40 20/63/41 19/58/42
f 19/58/42 20/63/41 27/64/43 28/59/44
s 5
f 22/13/45 21/14/46 24/15/47 23/16/48
f 23/16/48 24/15/47 38/19/49 37/20/50
s 6
f 25/106/51 26/107/52 45/108/53 44/109/54
f 26/107/52 25/106/51 28/110/55 27/111/56
s 3
f 30/81/57 29/78/58 51/77/59 52/82/60
s off
f 29/5/61 32/2/62 34/1/63 33/6/64
f 33/79/65 36/83/66 55/84/67 54/80/68
s 5
f 37/20/50 38/19/49 41/22/69 43/23/70
s 7
f 39/49/71 40/44/72 58/48/73 57/54/74
f 40/44/72 39/49/71 43/50/75 42/45/76
s off
f 42/25/77 41/22/78 48/24/79 47/26/80
s 6
f 44/109/54 45/108/53 46/114/81 48/115/82
s 8
f 47/46/83 46/51/84 50/52/85 49/43/86
f 49/43/86 50/52/85 60/53/87 59/47/88
s off
f 52/35/89 51/39/90 54/40/91 53/36/92
f 53/104/93 55/102/94 57/103/95 56/105/96
f 56/37/97 58/41/98 59/42/99 60/38/100
s 9
f 49/43/101 40/44/102 42/45/103 47/46/104
s 10
f 27/111/105 15/116/106 14/112/107
s 11
f 3/57/108 19/58/109 28/59/110 21/60/111
s 12
f 21/14/112 28/17/113 25/18/114 24/15/115
s off
f 17/27/116 2/28/117 5/29/118 12/30/119
s 11
f 18/61/120 19/58/109 3/57/108 1/62/121
s 10
f 12/120/122 15/116/106 20/118/123 17/121/124
s 13
f 2/100/125 4/96/126 9/91/127 5/101/128
s off
f 52/35/129 53/36/130 56/37/131 60/38/132
s 12
f 38/19/133 44/21/134 48/24/135 41/22/136
s 10
f 46/114/137 31/113/138 30/117/139
s 13
f 35/88/140 10/87/141 23/92/142 37/93/143
s 12
f 24/15/115 25/18/114 44/21/134 38/19/133
s 10
f 26/107/144 14/112/107 31/113/138 45/108/145
s 13
f 55/102/146 36/95/147 39/99/148 57/103/149
s 9
f 40/44/102 49/43/101 59/47/150 58/48/151
s 10
f 50/119/152 30/117/139 52/122/153 60/123/154
s 13
f 10/87/141 9/91/127 4/96/126 22/97/155 23/92/142
f 36/95/147 35/88/140 37/93/143 43/98/156 39/99/148
s off
f 6/69/157 8/70/158 16/71/159 11/72/160
f 51/77/161 29/78/162 33/79/163 54/80/164
s 2
f 7/86/23 8/90/165 9/91/166 10/87/24
s 3
f 13/3/36 14/7/35 15/12/34 16/10/33
f 29/5/58 30/11/57 31/8/38 32/2/37
s 2
f 33/94/167 34/89/26 35/88/25 36/95/168
s off
f 41/22/169 42/25/170 43/23/171
f 46/51/172 47/46/173 48/55/174
f 53/85/175 54/80/176 55/84/177
f 56/56/178 57/54/179 58/48/180
s 10
f 27/111/105 14/112/107 26/107/144
f 20/118/123 15/116/106 27/111/105
f 46/114/137 30/117/139 50/119/152
f 45/108/145 31/113/138 46/114/137
